<svg xmlns="http://www.w3.org/2000/svg" xmlns:xlink="http://www.w3.org/1999/xlink" viewBox="0 0 2653 4131">
            <defs>
              <clipPath id="clip-Prancheta_3">
                <rect width="2653" height="4131"/>
              </clipPath>
            </defs>
            <g id="Prancheta_3" data-name="Prancheta – 3" clip-path="url(#clip-Prancheta_3)">
              <rect width="2653" height="4131" fill="#fff"/>
              <rect id="Retângulo_876" data-name="Retângulo 876" width="2156" height="14" transform="translate(134 1112)" fill="#f0f0f0"/>
              <rect id="Retângulo_888" data-name="Retângulo 888" width="2156" height="14" transform="translate(134 3517)" fill="#f0f0f0"/>
              <g id="Grupo_32771" data-name="Grupo 32771">
                <circle id="Elipse_171" data-name="Elipse 171" cx="76.5" cy="76.5" r="76.5" transform="translate(98 95)" fill="#1a1a1a"/>
                <text id="As_teses_de_investimentos_são_recebidas_pela_DTO" data-name="As teses de investimentos são recebidas pela DTO" transform="translate(305 95)" fill="#1a1a1a" font-size="40" font-family="OpenSans-Light, Open Sans" font-weight="300"><tspan x="0" y="43">As teses de </tspan><tspan x="0" y="94">investimentos são </tspan><tspan x="0" y="145">recebidas pela DTO</tspan></text>
                <text id="_1" data-name="1" transform="translate(173 134)" fill="#fff" font-size="55" font-family="OpenSans-Bold, Open Sans" font-weight="700"><tspan x="-15.697" y="59">1</tspan></text>
              </g>
              <g id="Grupo_32773" data-name="Grupo 32773" transform="translate(529 323)">
                <g id="Grupo_32771-2" data-name="Grupo 32771">
                  <circle id="Elipse_171-2" data-name="Elipse 171" cx="76.5" cy="76.5" r="76.5" transform="translate(98 95)" fill="#1a1a1a"/>
                  <text id="_2" data-name="2" transform="translate(156 134)" fill="#fff" font-size="55" font-family="OpenSans-Bold, Open Sans" font-weight="700"><tspan x="-15.697" y="59">2</tspan></text>
                </g>
                <text id="A_DTO_revisa_a_tese_e_a_coloca_na_dinâmica_de_priorização" data-name="A DTO revisa a tese e a coloca na dinâmica de priorização" transform="translate(305 95)" fill="#1a1a1a" font-size="40" font-family="OpenSans-Light, Open Sans" font-weight="300"><tspan x="0" y="43">A DTO revisa a tese e a </tspan><tspan x="0" y="94">coloca na dinâmica de </tspan><tspan x="0" y="145">priorização</tspan></text>
              </g>
              <g id="Grupo_32775" data-name="Grupo 32775" transform="translate(-47 1591)">
                <g id="Grupo_32771-3" data-name="Grupo 32771">
                  <circle id="Elipse_171-3" data-name="Elipse 171" cx="76.5" cy="76.5" r="76.5" transform="translate(98 95)" fill="#1a1a1a"/>
                  <text id="_5" data-name="5" transform="translate(153 134)" fill="#fff" font-size="55" font-family="OpenSans-Bold, Open Sans" font-weight="700"><tspan x="-15.697" y="59">5</tspan></text>
                </g>
                <text id="Todos_os_gestores_apresentam_suas_teses_em_sequência" data-name="Todos os gestores apresentam suas teses em sequência" transform="translate(303 95)" fill="#1a1a1a" font-size="40" font-family="OpenSans-Light, Open Sans" font-weight="300"><tspan x="0" y="43">Todos os gestores </tspan><tspan x="0" y="94">apresentam suas teses </tspan><tspan x="0" y="145">em sequência</tspan></text>
              </g>
              <g id="Grupo_32777" data-name="Grupo 32777" transform="translate(338 1151)">
                <g id="Grupo_32771-4" data-name="Grupo 32771">
                  <circle id="Elipse_171-4" data-name="Elipse 171" cx="76.5" cy="76.5" r="76.5" transform="translate(98 95)" fill="#1a1a1a"/>
                  <text id="_4" data-name="4" transform="translate(156 134)" fill="#fff" font-size="55" font-family="OpenSans-Bold, Open Sans" font-weight="700"><tspan x="-15.697" y="59">4</tspan></text>
                </g>
                <text id="A_facilitadora_irá_apresentar_o_jogo_suas_regras_e_a_dinâmica_de_modo_geral" data-name="A facilitadora irá apresentar o jogo, suas regras e a dinâmica de modo geral" transform="translate(303 95)" fill="#1a1a1a" font-size="40" font-family="OpenSans-Light, Open Sans" font-weight="300"><tspan x="0" y="43">A facilitadora irá apresentar o </tspan><tspan x="0" y="94">jogo, suas regras e a dinâmica </tspan><tspan x="0" y="145">de modo geral</tspan></text>
              </g>
              <g id="Grupo_32776" data-name="Grupo 32776" transform="translate(693 1967)">
                <g id="Grupo_32771-5" data-name="Grupo 32771">
                  <circle id="Elipse_171-5" data-name="Elipse 171" cx="76.5" cy="76.5" r="76.5" transform="translate(98 95)" fill="#1a1a1a"/>
                  <text id="_6" data-name="6" transform="translate(154 134)" fill="#fff" font-size="55" font-family="OpenSans-Bold, Open Sans" font-weight="700"><tspan x="-15.697" y="59">6</tspan></text>
                </g>
                <text id="A_primeira_tese_é_selecionada_para_votação" data-name="A primeira tese é selecionada para votação" transform="translate(303 95)" fill="#1a1a1a" font-size="40" font-family="OpenSans-Light, Open Sans" font-weight="300"><tspan x="0" y="43">A primeira tese é </tspan><tspan x="0" y="94">selecionada para </tspan><tspan x="0" y="145">votação</tspan></text>
              </g>
              <g id="Grupo_32778" data-name="Grupo 32778" transform="translate(729 2384)">
                <g id="Grupo_32771-6" data-name="Grupo 32771">
                  <circle id="Elipse_171-6" data-name="Elipse 171" cx="76.5" cy="76.5" r="76.5" transform="translate(98 95)" fill="#1a1a1a"/>
                  <text id="_7" data-name="7" transform="translate(160 134)" fill="#fff" font-size="55" font-family="OpenSans-Bold, Open Sans" font-weight="700"><tspan x="-15.697" y="59">7</tspan></text>
                </g>
                <text id="O_primeiro_critério_de_votação_é_apresentado_e_explicado" data-name="O primeiro critério de votação é apresentado e explicado" transform="translate(336 95)" fill="#1a1a1a" font-size="40" font-family="OpenSans-Light, Open Sans" font-weight="300"><tspan x="0" y="43">O primeiro critério de </tspan><tspan x="0" y="94">votação é apresentado e </tspan><tspan x="0" y="145">explicado</tspan></text>
              </g>
              <g id="Grupo_32779" data-name="Grupo 32779" transform="translate(699 2776)">
                <g id="Grupo_32771-7" data-name="Grupo 32771">
                  <circle id="Elipse_171-7" data-name="Elipse 171" cx="76.5" cy="76.5" r="76.5" transform="translate(98 95)" fill="#1a1a1a"/>
                  <text id="_8" data-name="8" transform="translate(155 134)" fill="#fff" font-size="55" font-family="OpenSans-Bold, Open Sans" font-weight="700"><tspan x="-15.697" y="59">8</tspan></text>
                </g>
                <text id="Um_representante_de_cada_área_vota" data-name="Um representante de cada área vota" transform="translate(297 119)" fill="#1a1a1a" font-size="40" font-family="OpenSans-Light, Open Sans" font-weight="300"><tspan x="0" y="43">Um representante de </tspan><tspan x="0" y="94">cada área vota</tspan></text>
              </g>
              <g id="Grupo_32780" data-name="Grupo 32780" transform="translate(8 3082)">
                <g id="Grupo_32771-8" data-name="Grupo 32771">
                  <circle id="Elipse_171-8" data-name="Elipse 171" cx="76.5" cy="76.5" r="76.5" transform="translate(98 95)" fill="#1a1a1a"/>
                  <text id="_9" data-name="9" transform="translate(158 134)" fill="#fff" font-size="55" font-family="OpenSans-Bold, Open Sans" font-weight="700"><tspan x="-15.697" y="59">9</tspan></text>
                </g>
                <text id="Ao_final_de_votação_para_todos_os_critérios_o_SCORE_é_calculado" data-name="Ao final de votação para todos os critérios, o SCORE é calculado" transform="translate(297 119)" fill="#1a1a1a" font-size="40" font-family="OpenSans-Light, Open Sans" font-weight="300"><tspan x="0" y="43">Ao final de votação para </tspan><tspan x="0" y="94">todos os critérios, o </tspan><tspan x="0" y="145">SCORE é calculado</tspan></text>
              </g>
              <g id="Grupo_32781" data-name="Grupo 32781" transform="translate(306 3662)">
                <g id="Grupo_32771-9" data-name="Grupo 32771">
                  <circle id="Elipse_171-9" data-name="Elipse 171" cx="76.5" cy="76.5" r="76.5" transform="translate(98 95)" fill="#1a1a1a"/>
                  <text id="_10" data-name="10" transform="translate(154 134)" fill="#fff" font-size="55" font-family="OpenSans-Bold, Open Sans" font-weight="700"><tspan x="-31.394" y="59">10</tspan></text>
                </g>
                <text id="A_DTO_irá_desenvolver_os_estudos_na_sequência_priorizada_pelos_gestores" data-name="A DTO irá desenvolver os estudos na sequência priorizada pelos gestores" transform="translate(298 95)" fill="#1a1a1a" font-size="40" font-family="OpenSans-Light, Open Sans" font-weight="300"><tspan x="0" y="43">A DTO irá desenvolver os </tspan><tspan x="0" y="94">estudos na sequência </tspan><tspan x="0" y="145">priorizada pelos gestores</tspan></text>
              </g>
              <g id="Grupo_32774" data-name="Grupo 32774" transform="translate(0 662)">
                <g id="Grupo_32771-10" data-name="Grupo 32771">
                  <circle id="Elipse_171-10" data-name="Elipse 171" cx="76.5" cy="76.5" r="76.5" transform="translate(98 95)" fill="#1a1a1a"/>
                  <text id="_3" data-name="3" transform="translate(155 134)" fill="#fff" font-size="55" font-family="OpenSans-Bold, Open Sans" font-weight="700"><tspan x="-15.697" y="59">3</tspan></text>
                </g>
                <text id="O_gestor_que_enviou_a_tese_poderá_visualizar_a_sua_tese_e_as_demais_que_serão_apresentadas_na_dinâmica_em_nosso_mural" data-name="O gestor que enviou a tese poderá visualizar a sua tese e as demais que serão apresentadas na dinâmica em nosso mural" transform="translate(303 68)" fill="#1a1a1a" font-size="40" font-family="OpenSans-Light, Open Sans" font-weight="300"><tspan x="0" y="43">O gestor que enviou a tese poderá </tspan><tspan x="0" y="94">visualizar a sua tese e as demais que </tspan><tspan x="0" y="145">serão apresentadas na dinâmica em </tspan><tspan x="0" y="196">nosso mural</tspan></text>
              </g>
              <g id="Grupo_32782" data-name="Grupo 32782" transform="translate(-89.931 239.007) rotate(-14)">
                <g id="Retângulo_878" data-name="Retângulo 878" transform="translate(1415 376)" fill="#fff" stroke="#707070" stroke-width="1">
                  <rect width="513" height="368" stroke="none"/>
                  <rect x="0.5" y="0.5" width="512" height="367" fill="none"/>
                </g>
                <rect id="Retângulo_879" data-name="Retângulo 879" width="449" height="20" transform="translate(1447 418)" fill="#da0063"/>
                <g id="Retângulo_880" data-name="Retângulo 880" transform="translate(1447 466)" fill="#fff" stroke="#707070" stroke-width="1">
                  <rect width="281" height="42" stroke="none"/>
                  <rect x="0.5" y="0.5" width="280" height="41" fill="none"/>
                </g>
                <g id="Retângulo_883" data-name="Retângulo 883" transform="translate(1743 466)" fill="#fff" stroke="#707070" stroke-width="1">
                  <rect width="153" height="80" stroke="none"/>
                  <rect x="0.5" y="0.5" width="152" height="79" fill="none"/>
                </g>
                <g id="Retângulo_884" data-name="Retângulo 884" transform="translate(1743 560)" fill="#fff" stroke="#707070" stroke-width="1">
                  <rect width="153" height="51" stroke="none"/>
                  <rect x="0.5" y="0.5" width="152" height="50" fill="none"/>
                </g>
                <g id="Retângulo_885" data-name="Retângulo 885" transform="translate(1743 628)" fill="#fff" stroke="#707070" stroke-width="1">
                  <rect width="153" height="80" stroke="none"/>
                  <rect x="0.5" y="0.5" width="152" height="79" fill="none"/>
                </g>
                <g id="Retângulo_881" data-name="Retângulo 881" transform="translate(1447 525)" fill="#fff" stroke="#707070" stroke-width="1">
                  <rect width="281" height="86" stroke="none"/>
                  <rect x="0.5" y="0.5" width="280" height="85" fill="none"/>
                </g>
                <g id="Retângulo_882" data-name="Retângulo 882" transform="translate(1447 628)" fill="#fff" stroke="#707070" stroke-width="1">
                  <rect width="281" height="86" stroke="none"/>
                  <rect x="0.5" y="0.5" width="280" height="85" fill="none"/>
                </g>
              </g>
              <g id="Grupo_32783" data-name="Grupo 32783" transform="translate(47.069 381.007) rotate(-14)">
                <g id="Retângulo_878-2" data-name="Retângulo 878" transform="translate(1415 376)" fill="#fff" stroke="#707070" stroke-width="1">
                  <rect width="513" height="368" stroke="none"/>
                  <rect x="0.5" y="0.5" width="512" height="367" fill="none"/>
                </g>
                <rect id="Retângulo_879-2" data-name="Retângulo 879" width="449" height="20" transform="translate(1447 418)" fill="#da0063"/>
                <g id="Retângulo_880-2" data-name="Retângulo 880" transform="translate(1447 466)" fill="#fff" stroke="#707070" stroke-width="1">
                  <rect width="281" height="42" stroke="none"/>
                  <rect x="0.5" y="0.5" width="280" height="41" fill="none"/>
                </g>
                <g id="Retângulo_883-2" data-name="Retângulo 883" transform="translate(1743 466)" fill="#fff" stroke="#707070" stroke-width="1">
                  <rect width="153" height="80" stroke="none"/>
                  <rect x="0.5" y="0.5" width="152" height="79" fill="none"/>
                </g>
                <g id="Retângulo_884-2" data-name="Retângulo 884" transform="translate(1743 560)" fill="#fff" stroke="#707070" stroke-width="1">
                  <rect width="153" height="51" stroke="none"/>
                  <rect x="0.5" y="0.5" width="152" height="50" fill="none"/>
                </g>
                <g id="Retângulo_885-2" data-name="Retângulo 885" transform="translate(1743 628)" fill="#fff" stroke="#707070" stroke-width="1">
                  <rect width="153" height="80" stroke="none"/>
                  <rect x="0.5" y="0.5" width="152" height="79" fill="none"/>
                </g>
                <g id="Retângulo_881-2" data-name="Retângulo 881" transform="translate(1447 525)" fill="#fff" stroke="#707070" stroke-width="1">
                  <rect width="281" height="86" stroke="none"/>
                  <rect x="0.5" y="0.5" width="280" height="85" fill="none"/>
                </g>
                <g id="Retângulo_882-2" data-name="Retângulo 882" transform="translate(1447 628)" fill="#fff" stroke="#707070" stroke-width="1">
                  <rect width="281" height="86" stroke="none"/>
                  <rect x="0.5" y="0.5" width="280" height="85" fill="none"/>
                </g>
              </g>
              <g id="Grupo_32784" data-name="Grupo 32784" transform="translate(203.463 519.594) rotate(-14)">
                <g id="Retângulo_878-3" data-name="Retângulo 878" transform="translate(1415 376)" fill="#fff" stroke="#707070" stroke-width="1">
                  <rect width="513" height="368" stroke="none"/>
                  <rect x="0.5" y="0.5" width="512" height="367" fill="none"/>
                </g>
                <rect id="Retângulo_879-3" data-name="Retângulo 879" width="449" height="20" transform="translate(1447 418)" fill="#da0063"/>
                <g id="Retângulo_880-3" data-name="Retângulo 880" transform="translate(1447 466)" fill="#fff" stroke="#707070" stroke-width="1">
                  <rect width="281" height="42" stroke="none"/>
                  <rect x="0.5" y="0.5" width="280" height="41" fill="none"/>
                </g>
                <g id="Retângulo_883-3" data-name="Retângulo 883" transform="translate(1743 466)" fill="#fff" stroke="#707070" stroke-width="1">
                  <rect width="153" height="80" stroke="none"/>
                  <rect x="0.5" y="0.5" width="152" height="79" fill="none"/>
                </g>
                <g id="Retângulo_884-3" data-name="Retângulo 884" transform="translate(1743 560)" fill="#fff" stroke="#707070" stroke-width="1">
                  <rect width="153" height="51" stroke="none"/>
                  <rect x="0.5" y="0.5" width="152" height="50" fill="none"/>
                </g>
                <g id="Retângulo_885-3" data-name="Retângulo 885" transform="translate(1743 628)" fill="#fff" stroke="#707070" stroke-width="1">
                  <rect width="153" height="80" stroke="none"/>
                  <rect x="0.5" y="0.5" width="152" height="79" fill="none"/>
                </g>
                <g id="Retângulo_881-3" data-name="Retângulo 881" transform="translate(1447 525)" fill="#fff" stroke="#707070" stroke-width="1">
                  <rect width="281" height="86" stroke="none"/>
                  <rect x="0.5" y="0.5" width="280" height="85" fill="none"/>
                </g>
                <g id="Retângulo_882-3" data-name="Retângulo 882" transform="translate(1447 628)" fill="#fff" stroke="#707070" stroke-width="1">
                  <rect width="281" height="86" stroke="none"/>
                  <rect x="0.5" y="0.5" width="280" height="85" fill="none"/>
                </g>
              </g>
              <g id="Grupo_32785" data-name="Grupo 32785" transform="translate(111.921 157)">
                <rect id="Retângulo_886" data-name="Retângulo 886" width="743.191" height="388.292" rx="50" transform="translate(1482 1246)" fill="#309161"/>
                <text id="DTO_POKER" data-name="DTO POKER" transform="translate(1794.187 1513.177)" fill="#1a1a1a" font-size="20" font-family="OpenSans-Bold, Open Sans" font-weight="700" opacity="0.316"><tspan x="0" y="0">DTO POKER</tspan></text>
                <path id="Caminho_42" data-name="Caminho 42" d="M2034.622,3617.425h-35.643s16.292-9.972,12.859-22.937c-69.483,14.611-12.458-43.838,1.373-62.653,10.823,13.777,79.627,82.891,5.5,62.653C2015.446,3615.115,2034.622,3617.425,2034.622,3617.425Z" transform="translate(-161.904 -2141.713)" fill="#151515" opacity="0.316"/>
                <g id="Elipse_172" data-name="Elipse 172" transform="translate(1694.784 1324.435)" fill="#fff" stroke="#707070" stroke-width="1">
                  <circle cx="14.367" cy="14.367" r="14.367" stroke="none"/>
                  <circle cx="14.367" cy="14.367" r="13.867" fill="none"/>
                </g>
                <g id="Elipse_173" data-name="Elipse 173" transform="translate(1732.06 1324.435)" fill="#fff" stroke="#707070" stroke-width="1">
                  <circle cx="14.367" cy="14.367" r="14.367" stroke="none"/>
                  <circle cx="14.367" cy="14.367" r="13.867" fill="none"/>
                </g>
                <g id="Elipse_174" data-name="Elipse 174" transform="translate(1769.336 1324.435)" fill="#fff" stroke="#707070" stroke-width="1">
                  <circle cx="14.367" cy="14.367" r="14.367" stroke="none"/>
                  <circle cx="14.367" cy="14.367" r="13.867" fill="none"/>
                </g>
                <g id="Elipse_175" data-name="Elipse 175" transform="translate(1806.612 1324.435)" fill="#fff" stroke="#707070" stroke-width="1">
                  <circle cx="14.367" cy="14.367" r="14.367" stroke="none"/>
                  <circle cx="14.367" cy="14.367" r="13.867" fill="none"/>
                </g>
                <g id="Elipse_176" data-name="Elipse 176" transform="translate(1843.888 1324.435)" fill="#fff" stroke="#707070" stroke-width="1">
                  <circle cx="14.367" cy="14.367" r="14.367" stroke="none"/>
                  <circle cx="14.367" cy="14.367" r="13.867" fill="none"/>
                </g>
                <g id="Elipse_177" data-name="Elipse 177" transform="translate(1881.164 1324.435)" fill="#fff" stroke="#707070" stroke-width="1">
                  <circle cx="14.367" cy="14.367" r="14.367" stroke="none"/>
                  <circle cx="14.367" cy="14.367" r="13.867" fill="none"/>
                </g>
                <g id="Elipse_178" data-name="Elipse 178" transform="translate(1918.441 1324.435)" fill="#fff" stroke="#707070" stroke-width="1">
                  <circle cx="14.367" cy="14.367" r="14.367" stroke="none"/>
                  <circle cx="14.367" cy="14.367" r="13.867" fill="none"/>
                </g>
                <g id="Elipse_179" data-name="Elipse 179" transform="translate(1955.717 1324.435)" fill="#fff" stroke="#707070" stroke-width="1">
                  <circle cx="14.367" cy="14.367" r="14.367" stroke="none"/>
                  <circle cx="14.367" cy="14.367" r="13.867" fill="none"/>
                </g>
              </g>
              <g id="Grupo_32786" data-name="Grupo 32786" transform="matrix(0.951, -0.309, 0.309, 0.951, -2289.443, 857.07)">
                <g id="Retângulo_887" data-name="Retângulo 887" transform="translate(1835 2303)" fill="#fff" stroke="#ffbe0d" stroke-width="9">
                  <rect width="402" height="294" rx="50" stroke="none"/>
                  <rect x="4.5" y="4.5" width="393" height="285" rx="45.5" fill="none"/>
                </g>
                <text id="Critério_1" data-name="Critério 1" transform="translate(1868 2373)" fill="#1a1a1a" font-size="28" font-family="OpenSans-Bold, Open Sans" font-weight="700"><tspan x="0" y="0">Critério 1</tspan></text>
                <g id="Elipse_180" data-name="Elipse 180" transform="translate(1879 2420)" fill="#fff" stroke="#707070" stroke-width="1">
                  <circle cx="15" cy="15" r="15" stroke="none"/>
                  <circle cx="15" cy="15" r="14.5" fill="none"/>
                </g>
                <g id="Elipse_181" data-name="Elipse 181" transform="translate(1879 2464)" fill="#fff" stroke="#707070" stroke-width="1">
                  <circle cx="15" cy="15" r="15" stroke="none"/>
                  <circle cx="15" cy="15" r="14.5" fill="none"/>
                </g>
                <g id="Elipse_182" data-name="Elipse 182" transform="translate(1879 2508)" fill="#fff" stroke="#707070" stroke-width="1">
                  <circle cx="15" cy="15" r="15" stroke="none"/>
                  <circle cx="15" cy="15" r="14.5" fill="none"/>
                </g>
              </g>
              <g id="Grupo_32787" data-name="Grupo 32787" transform="translate(238 -363)">
                <g id="Elipse_185" data-name="Elipse 185" transform="translate(1685 2707)" fill="#fff" stroke="#d5d5d5" stroke-width="6">
                  <circle cx="263.5" cy="263.5" r="263.5" stroke="none"/>
                  <circle cx="263.5" cy="263.5" r="260.5" fill="none"/>
                </g>
                <g id="Elipse_183" data-name="Elipse 183" transform="translate(1834 2903)" fill="#fff" stroke="#707070" stroke-width="7">
                  <circle cx="39.5" cy="39.5" r="39.5" stroke="none"/>
                  <circle cx="39.5" cy="39.5" r="36" fill="none"/>
                </g>
                <g id="Elipse_184" data-name="Elipse 184" transform="translate(1834 3014)" fill="#fff" stroke="#707070" stroke-width="7">
                  <circle cx="39.5" cy="39.5" r="39.5" stroke="none"/>
                  <circle cx="39.5" cy="39.5" r="36" fill="none"/>
                </g>
                <path id="Caminho_43" data-name="Caminho 43" d="M1925,5061.543l38.635,65.95,76.041-97.287-76.041,68.754Z" transform="translate(-91 -2175.85)" fill="#299115"/>
                <text id="VOTO" transform="translate(1972 2958)" fill="#299115" font-size="40" font-family="OpenSans-Bold, Open Sans" font-weight="700"><tspan x="0" y="0">VOTO</tspan></text>
              </g>
              <g id="flowKitConnector" transform="translate(-33 13.5)">
                <path id="line" d="M426,252h0V496.5H627" fill="none" stroke="#ccc" stroke-width="5"/>
                <path id="leftEdge" transform="translate(426 252)" fill="none" stroke="rgba(0,0,0,0)" stroke-width="5"/>
                <path id="rightEdge" d="M-18.75-10h0L0,0-18.75,10Z" transform="translate(627 496.5)" fill="#ccc" stroke="#ccc" stroke-width="5"/>
              </g>
              <g id="flowKitConnector-2" data-name="flowKitConnector" transform="translate(654.157 301.749)">
                <path id="line-2" data-name="line" d="M500.632,252h0V522.251H426" transform="translate(0)" fill="none" stroke="#ccc" stroke-width="5"/>
                <path id="leftEdge-2" data-name="leftEdge" transform="translate(500.632 252)" fill="none" stroke="rgba(0,0,0,0)" stroke-width="5"/>
                <path id="rightEdge-2" data-name="rightEdge" d="M0-10H0L-18.75,0,0,10Z" transform="translate(444.75 522.251)" fill="#ccc" stroke="#ccc" stroke-width="5"/>
              </g>
              <g id="flowKitConnector-3" data-name="flowKitConnector" transform="translate(344.486 1175)">
                <path id="line-3" data-name="line" d="M645.686,252h0V579.5H426" transform="translate(0)" fill="none" stroke="#ccc" stroke-width="5"/>
                <path id="leftEdge-3" data-name="leftEdge" transform="translate(645.686 252)" fill="none" stroke="rgba(0,0,0,0)" stroke-width="5"/>
                <path id="rightEdge-3" data-name="rightEdge" d="M0-10H0L-18.75,0,0,10Z" transform="translate(444.75 579.5)" fill="#ccc" stroke="#ccc" stroke-width="5"/>
              </g>
              <g id="flowKitConnector-4" data-name="flowKitConnector" transform="translate(-61.486 3559.843) rotate(-90)">
                <path id="line-4" data-name="line" d="M612.343,804.986h0V252H426" transform="translate(0 10)" fill="none" stroke="#ccc" stroke-width="5"/>
                <path id="leftEdge-4" data-name="leftEdge" transform="translate(612.343 814.986)" fill="none" stroke="rgba(0,0,0,0)" stroke-width="5"/>
                <path id="rightEdge-4" data-name="rightEdge" d="M0,10H0L-18.75,0,0-10Z" transform="translate(444.75 262)" fill="#ccc" stroke="#ccc" stroke-width="5"/>
              </g>
              <g id="flowKitConnector-5" data-name="flowKitConnector" transform="translate(1088 1810)">
                <path id="line-5" data-name="line" d="M426,293.68H585.843V711.693H426" transform="translate(0 0)" fill="none" stroke="#ccc" stroke-width="5"/>
                <path id="leftEdge-5" data-name="leftEdge" transform="translate(585.843 252)" fill="none" stroke="rgba(0,0,0,0)" stroke-width="5"/>
                <path id="rightEdge-5" data-name="rightEdge" d="M0-10H0L-18.75,0,0,10Z" transform="translate(444.75 711.693)" fill="#ccc" stroke="#ccc" stroke-width="5"/>
              </g>
              <g id="flowKitConnector-6" data-name="flowKitConnector" transform="translate(1088 2273.072)">
                <path id="line-6" data-name="line" d="M426,293.68H585.843V711.693H426" transform="translate(0 0)" fill="none" stroke="#ccc" stroke-width="5"/>
                <path id="leftEdge-6" data-name="leftEdge" transform="translate(585.843 252)" fill="none" stroke="rgba(0,0,0,0)" stroke-width="5"/>
                <path id="rightEdge-6" data-name="rightEdge" d="M0-10H0L-18.75,0,0,10Z" transform="translate(444.75 711.693)" fill="#ccc" stroke="#ccc" stroke-width="5"/>
              </g>
              <g id="flowKitConnector-7" data-name="flowKitConnector" transform="translate(-234 686)">
                <path id="line-7" data-name="line" d="M426,252h0V628.5H627" fill="none" stroke="#ccc" stroke-width="5"/>
                <path id="leftEdge-7" data-name="leftEdge" transform="translate(426 252)" fill="none" stroke="rgba(0,0,0,0)" stroke-width="5"/>
                <path id="rightEdge-7" data-name="rightEdge" d="M-18.75-10h0L0,0-18.75,10Z" transform="translate(627 628.5)" fill="#ccc" stroke="#ccc" stroke-width="5"/>
              </g>
              <g id="flowKitConnector-8" data-name="flowKitConnector" transform="translate(-292 1620.25)">
                <path id="line-8" data-name="line" d="M426,252h0V510.25h636.486" fill="none" stroke="#ccc" stroke-width="5"/>
                <path id="leftEdge-8" data-name="leftEdge" transform="translate(426 252)" fill="none" stroke="rgba(0,0,0,0)" stroke-width="5"/>
                <path id="rightEdge-8" data-name="rightEdge" d="M-18.75-10h0L0,0-18.75,10Z" transform="translate(1062.486 510.25)" fill="#ccc" stroke="#ccc" stroke-width="5"/>
              </g>
              <g id="flowKitConnector-9" data-name="flowKitConnector" transform="translate(-235.486 3106)">
                <path id="line-9" data-name="line" d="M426,252h0V719.5H618.83" fill="none" stroke="#ccc" stroke-width="5"/>
                <path id="leftEdge-9" data-name="leftEdge" transform="translate(426 252)" fill="none" stroke="rgba(0,0,0,0)" stroke-width="5"/>
                <path id="rightEdge-9" data-name="rightEdge" d="M-18.75-10h0L0,0-18.75,10Z" transform="translate(618.83 719.5)" fill="#ccc" stroke="#ccc" stroke-width="5"/>
              </g>
            </g>
          </svg>