<svg xmlns="http://www.w3.org/2000/svg" width="53.504" height="52.572" viewBox="0 0 53.504 52.572">
  <g id="Grupo_11" data-name="Grupo 11" transform="translate(-28.391 -441.487)">
    <path id="Caminho_3" data-name="Caminho 3" d="M5.922,4.079.429,0,0,4.6l6.726,8.569L8.5,12l-3-6.175C4.754,4.282,5.922,4.079,5.922,4.079Z" transform="translate(61.028 453.636) rotate(85)" fill="#cbcbcb"/>
    <path id="Caminho_1" data-name="Caminho 1" d="M-306.976,1740.6s2.694-6.843,10.548-14.694,16.638-6.287,16.638-6.287,1.917,8.309-5.889,16.466-14.874,10.859-14.874,10.859Z" transform="translate(361.477 -1278)" fill="#cc092f"/>
    <path id="Caminho_2" data-name="Caminho 2" d="M-277.707,1820.205l5.943-3.5.464,3.94-7.277,7.347-1.92-1,3.243-5.294C-276.444,1820.38-277.707,1820.205-277.707,1820.205Z" transform="translate(340.927 -1353.456)" fill="#cbcbcb"/>
    <path id="Caminho_4" data-name="Caminho 4" d="M-312.816,1816.913l4.949,4.831,2.825-1.338a12.129,12.129,0,0,0-2.465-3.619,16.622,16.622,0,0,0-4.021-2.665Z" transform="translate(366.446 -1351.896)" fill="#cbcbcb"/>
    <g id="Elipse_7" data-name="Elipse 7" transform="translate(70.615 445.632)" fill="#fff" stroke="#707070" stroke-width="1">
      <circle cx="3.358" cy="3.358" r="3.358" stroke="none"/>
      <circle cx="3.358" cy="3.358" r="2.858" fill="none"/>
    </g>
    <path id="Caminho_6" data-name="Caminho 6" d="M-387.324,1837.739l-.724-2.018s-.438,1.715-3.266,2.018a2.466,2.466,0,0,0-2.444,2.82s-3.342-1.263-4.733,3.239,3.417,6.117,3.417,6.117a34.955,34.955,0,0,0-3.908,3.105c-.91.81-.784-3.8-4.8-1.9-2.132,1.287-1.821,4.364-1.821,4.364s-3.287-.587-4.358.8a4.246,4.246,0,0,0-.469,3.414s-.18-.753-1.412-1.134a3.339,3.339,0,0,1-1.77-1.235,9.422,9.422,0,0,0,2.932,3.784,5.554,5.554,0,0,0,4.8,1c1.525-.354,2.519-1.8,4.413-2.066a8.647,8.647,0,0,1,4.319,1.063s10.048,5.1,13.558-2.822-2.741-10.549-2.741-10.549a2.869,2.869,0,0,0,.613-1.444,2.1,2.1,0,0,0-.613-1.276.866.866,0,0,1,0-1.227,6.129,6.129,0,0,0,.9-2.727,3.378,3.378,0,0,0-.283-2.132Z" transform="translate(442 -1369.176)" fill="#727272"/>
    <path id="Caminho_5" data-name="Caminho 5" d="M-396,1830.37l-.872,2.671a2.494,2.494,0,0,0-2.931,0c-1.5,1.1-.456,2.941-.456,2.941s-3.893-1.415-5.284,3.086,4.071,4.591,4.071,4.591a11.949,11.949,0,0,1-3.183,5.709c-.91.81-2.113-4.644-6.126-2.75a4.383,4.383,0,0,0-2.125,3.533s-2.038-.524-3.108.866a4.246,4.246,0,0,0-.469,3.414,4.622,4.622,0,0,1-2.229-.144,12.5,12.5,0,0,1-2.7-1.381,13.446,13.446,0,0,0,4.14,3.622c2.126.944,6.49-2.1,6.49-2.1a14.248,14.248,0,0,0,4.361.33,4.066,4.066,0,0,1,3.216,1.084s10.048,5.1,13.558-2.822S-396,1842.138-396,1842.138a2.869,2.869,0,0,0,.613-1.444,2.1,2.1,0,0,0-.613-1.276,4.649,4.649,0,0,0,2-1.121c.564-.722-.483-1.67-.241-2.858a1.531,1.531,0,0,1,1.308-1.276Z" transform="translate(450.292 -1363.907)" fill="#fff" stroke="rgba(112,112,112,0.17)" stroke-width="1"/>
  </g>
</svg>